<svg xmlns="http://www.w3.org/2000/svg" viewBox="0 0 1600 900" role="img" aria-labelledby="title desc">
<title id="title">El Vago — escena de investigación</title>
<desc id="desc">Archivo oscuro con una llamada a las 03:17, documentos y una señal roja.</desc>
<defs>
  <linearGradient id="bg" x1="0" y1="0" x2="1" y2="1"><stop stop-color="#070707"/><stop offset=".6" stop-color="#101010"/><stop offset="1" stop-color="#19090b"/></linearGradient>
  <radialGradient id="red"><stop stop-color="#e50914" stop-opacity=".38"/><stop offset="1" stop-color="#e50914" stop-opacity="0"/></radialGradient>
  <filter id="blur"><feGaussianBlur stdDeviation="30"/></filter>
</defs>
<rect width="1600" height="900" fill="url(#bg)"/>
<circle cx="1160" cy="390" r="330" fill="url(#red)" filter="url(#blur)"/>
<g opacity=".18" stroke="#fff"><path d="M0 120H1600M0 240H1600M0 360H1600M0 480H1600M0 600H1600M0 720H1600M0 840H1600"/><path d="M160 0V900M320 0V900M480 0V900M640 0V900M800 0V900M960 0V900M1120 0V900M1280 0V900M1440 0V900"/></g>
<g transform="translate(220 185) rotate(-5)">
 <rect width="520" height="360" rx="14" fill="#111" stroke="#444"/>
 <text x="38" y="55" fill="#e50914" font-family="Arial" font-size="20" font-weight="700" letter-spacing="5">EXP-002 / EVIDENCIA</text>
 <text x="38" y="150" fill="#fff" font-family="Arial" font-size="92" font-weight="700">03:17</text>
 <text x="40" y="195" fill="#888" font-family="Arial" font-size="18" letter-spacing="3">LLAMADA ENTRANTE</text>
 <path d="M40 255H470" stroke="#e50914" stroke-width="3"/><path d="M40 290H380M40 315H425" stroke="#555" stroke-width="8"/>
</g>
<g transform="translate(910 190) rotate(7)">
 <rect width="410" height="500" rx="14" fill="#0d0d0d" stroke="#333"/>
 <text x="32" y="48" fill="#e50914" font-family="Arial" font-size="16" font-weight="700" letter-spacing="4">ARCHIVO</text>
 <text x="32" y="100" fill="#fff" font-family="Arial" font-size="34" font-weight="700">LA LLAMADA</text>
 <text x="32" y="137" fill="#777" font-family="Arial" font-size="17">Registro de audio / noche</text>
 <circle cx="205" cy="275" r="92" fill="none" stroke="#e50914" stroke-width="2" opacity=".7"/>
 <circle cx="205" cy="275" r="48" fill="#e50914" opacity=".12"/>
 <path d="M112 275H298" stroke="#e50914" stroke-width="2" opacity=".7"/>
 <text x="32" y="435" fill="#666" font-family="Arial" font-size="13" letter-spacing="2">SEÑAL DETECTADA</text>
 <path d="M32 458h80l18-28 25 48 26-58 30 38h135" fill="none" stroke="#e50914" stroke-width="3"/>
</g>
<rect x="0" y="0" width="1600" height="900" fill="url(#red)" opacity=".04"/>
</svg>